<svg width="361" height="67" viewBox="0 0 361 67" fill="none" xmlns="http://www.w3.org/2000/svg">
<path d="M25 40.3658C35.52 38.7334 42.892 32.8778 54.9229 30.0321C67.8292 26.9793 76.7797 25.8087 88.6198 25.8087C99.0504 25.8087 109.144 26.1903 122.047 28.4146C124.282 28.7999 127.753 29.4929 127.753 29.4929C132.2 30.588 138.761 33.5366 138.761 33.5366C138.761 33.5366 153.116 36.9206 162.484 37.9396C180.234 39.8706 192.963 38.23 208.177 36.3671C227.176 34.0406 242.56 27.5627 265.102 25.8087C274.606 25.0693 281.586 25 289.499 25C298.241 25 307.142 27.2988 315.333 30.2567C322.632 32.8927 329.478 37.4286 335.551 41.9833" stroke="#D6E7FF" stroke-width="50" stroke-linecap="round"/>
</svg>
