<svg width="108" height="18" viewBox="0 0 108 18" fill="none" xmlns="http://www.w3.org/2000/svg">
<path d="M9.096 17.376C7.384 17.376 5.832 17.008 4.44 16.272C3.064 15.52 1.976 14.488 1.176 13.176C0.392 11.848 0 10.352 0 8.688C0 7.024 0.392 5.536 1.176 4.224C1.976 2.896 3.064 1.864 4.44 1.128C5.832 0.376 7.392 0 9.12 0C10.576 0 11.888 0.256 13.056 0.768C14.24 1.28 15.232 2.016 16.032 2.976L13.536 5.28C12.4 3.968 10.992 3.312 9.312 3.312C8.272 3.312 7.344 3.544 6.528 4.008C5.712 4.456 5.072 5.088 4.608 5.904C4.16 6.72 3.936 7.648 3.936 8.688C3.936 9.728 4.16 10.656 4.608 11.472C5.072 12.288 5.712 12.928 6.528 13.392C7.344 13.84 8.272 14.064 9.312 14.064C10.992 14.064 12.4 13.4 13.536 12.072L16.032 14.376C15.232 15.352 14.24 16.096 13.056 16.608C11.872 17.12 10.552 17.376 9.096 17.376Z" fill="black"/>
<path d="M33.4941 0.287999V17.088H29.7261V15.048C28.5741 16.6 26.8781 17.376 24.6381 17.376C22.6541 17.376 21.1021 16.752 19.9821 15.504C18.8781 14.24 18.3261 12.448 18.3261 10.128V0.287999H22.2141V10.008C22.2141 11.352 22.5261 12.368 23.1501 13.056C23.7901 13.728 24.6541 14.064 25.7421 14.064C26.9101 14.064 27.8461 13.704 28.5501 12.984C29.2541 12.248 29.6061 11.168 29.6061 9.744V0.287999H33.4941Z" fill="black"/>
<path d="M50.9899 0.287999V17.088H47.1499V12.624H43.5979L40.6219 17.088H36.5179L40.0219 12.024C38.8859 11.56 38.0139 10.864 37.4059 9.936C36.7979 8.992 36.4939 7.864 36.4939 6.552C36.4939 5.256 36.7899 4.144 37.3819 3.216C37.9739 2.272 38.8139 1.552 39.9019 1.056C40.9899 0.543999 42.2699 0.287999 43.7419 0.287999H50.9899ZM43.8379 3.456C42.7339 3.456 41.8859 3.712 41.2939 4.224C40.7179 4.736 40.4299 5.496 40.4299 6.504C40.4299 7.48 40.7099 8.232 41.2699 8.76C41.8299 9.288 42.6539 9.552 43.7419 9.552H47.1499V3.456H43.8379Z" fill="black"/>
<path d="M70.6069 0.287999V17.088H66.7189V10.2H59.0869V17.088H55.1989V0.287999H59.0869V6.912H66.7189V0.287999H70.6069Z" fill="black"/>
<path d="M89.7441 0.287999V17.088H85.9761V15.048C84.8241 16.6 83.1281 17.376 80.8881 17.376C78.9041 17.376 77.3521 16.752 76.2321 15.504C75.1281 14.24 74.5761 12.448 74.5761 10.128V0.287999H78.4641V10.008C78.4641 11.352 78.7761 12.368 79.4001 13.056C80.0401 13.728 80.9041 14.064 81.9921 14.064C83.1601 14.064 84.0961 13.704 84.8001 12.984C85.5041 12.248 85.8561 11.168 85.8561 9.744V0.287999H89.7441Z" fill="black"/>
<path d="M107.456 15.648C106.656 16.192 105.648 16.616 104.432 16.92C103.232 17.224 101.952 17.376 100.592 17.376C98.8959 17.376 97.4559 17.168 96.2719 16.752C95.0879 16.32 94.1919 15.728 93.5839 14.976C92.9759 14.208 92.6719 13.336 92.6719 12.36C92.6719 11.464 92.9199 10.672 93.4159 9.984C93.9119 9.296 94.5919 8.784 95.4559 8.448C94.7999 8.096 94.2879 7.616 93.9199 7.008C93.5679 6.4 93.3919 5.72 93.3919 4.968C93.3919 4.056 93.6719 3.224 94.2319 2.472C94.7919 1.72 95.6399 1.12 96.7759 0.672C97.9119 0.224 99.3039 0 100.952 0C102.04 0 103.104 0.112 104.144 0.336C105.184 0.543999 106.088 0.831999 106.856 1.2L105.776 4.176C104.304 3.488 102.744 3.144 101.096 3.144C99.8479 3.144 98.9039 3.336 98.2639 3.72C97.6399 4.088 97.3279 4.592 97.3279 5.232C97.3279 5.824 97.5359 6.28 97.9519 6.6C98.3839 6.904 99.0319 7.056 99.8959 7.056H104.48V10.128H99.6559C98.6799 10.128 97.9279 10.296 97.3999 10.632C96.8719 10.968 96.6079 11.456 96.6079 12.096C96.6079 12.768 96.9439 13.296 97.6159 13.68C98.3039 14.048 99.3519 14.232 100.76 14.232C101.752 14.232 102.744 14.104 103.736 13.848C104.728 13.576 105.568 13.2 106.256 12.72L107.456 15.648Z" fill="black"/>
</svg>
