<svg width="60" height="60" viewBox="0 0 60 60" fill="none" xmlns="http://www.w3.org/2000/svg">
<g clip-path="url(#clip0_617_189)">
<path d="M30 0C13.4325 0 0 13.4325 0 30C0 46.5675 13.4325 60 30 60C46.5675 60 60 46.5675 60 30C60 13.4325 46.5675 0 30 0ZM45.9025 39.9175L41.2325 39.9825C41.2325 39.9825 40.225 40.18 38.9075 39.27C37.16 38.07 35.5125 34.9475 34.2275 35.3525C32.925 35.7675 32.965 38.5775 32.965 38.5775C32.965 38.5775 32.975 39.0725 32.6775 39.395C32.355 39.7425 31.7225 39.7075 31.7225 39.7075H29.63C29.63 39.7075 25.015 40.09 20.9475 35.85C16.5175 31.2275 12.6025 22.105 12.6025 22.105C12.6025 22.105 12.3725 21.53 12.6175 21.235C12.895 20.91 13.6425 20.9 13.6425 20.9L18.6425 20.875C18.6425 20.875 19.1125 20.9575 19.4525 21.2075C19.73 21.4125 19.8875 21.7975 19.8875 21.7975C19.8875 21.7975 20.695 23.845 21.7675 25.7C23.8575 29.315 24.8275 30.1075 25.5375 29.72C26.5725 29.155 26.2625 24.61 26.2625 24.61C26.2625 24.61 26.2825 22.96 25.7425 22.225C25.3225 21.6525 24.5325 21.4825 24.1875 21.44C23.905 21.4025 24.365 20.7475 24.965 20.4525C25.865 20.0125 27.455 19.9875 29.3325 20.005C30.795 20.02 31.2175 20.11 31.7875 20.25C33.5125 20.6675 32.9275 22.2775 32.9275 26.14C32.9275 27.3775 32.705 29.1175 33.595 29.69C33.98 29.9375 34.9175 29.7275 37.255 25.7425C38.3675 23.8525 39.2 21.6325 39.2 21.6325C39.2 21.6325 39.3825 21.2375 39.665 21.0675C39.955 20.8925 40.345 20.9475 40.345 20.9475L45.6075 20.915C45.6075 20.915 47.1875 20.725 47.445 21.4425C47.715 22.1925 46.855 23.945 44.705 26.8125C41.175 31.5225 40.7825 31.085 43.715 33.81C46.515 36.4125 47.0925 37.6775 47.19 37.8375C48.3475 39.765 45.9025 39.9175 45.9025 39.9175Z" fill="#519BFF"/>
</g>
<defs>
<clipPath id="clip0_617_189">
<rect width="60" height="60" fill="white"/>
</clipPath>
</defs>
</svg>
