<svg width="60" height="60" viewBox="0 0 60 60" fill="none" xmlns="http://www.w3.org/2000/svg">
<g clip-path="url(#clip0_617_191)">
<path d="M30 0C13.4325 0 0 13.4325 0 30C0 35.628 1.58085 40.8752 4.27734 45.376L0.268555 60L15.2051 56.0791C19.5734 58.5627 24.6162 60 30 60C46.5675 60 60 46.5675 60 30C60 13.4325 46.5675 0 30 0ZM19.7314 16.0059C20.2189 16.0059 20.7198 16.0029 21.1523 16.0254C21.6873 16.0379 22.2696 16.0771 22.8271 17.3096C23.4896 18.7746 24.9322 22.4498 25.1172 22.8223C25.3022 23.1948 25.4333 23.6336 25.1758 24.1211C24.9308 24.6211 24.8034 24.9237 24.4434 25.3662C24.0709 25.7962 23.6627 26.3303 23.3252 26.6553C22.9527 27.0278 22.568 27.4362 22.998 28.1787C23.428 28.9212 24.9214 31.3553 27.1289 33.3203C29.9664 35.8553 32.3605 36.6343 33.1055 37.0068C33.8505 37.3793 34.2819 37.3213 34.7119 36.8213C35.1544 36.3338 36.5703 34.661 37.0703 33.916C37.5578 33.171 38.0555 33.2999 38.7305 33.5449C39.4155 33.7899 43.0685 35.5894 43.8135 35.9619C44.5585 36.3344 45.0469 36.5188 45.2344 36.8213C45.4269 37.1338 45.4271 38.6214 44.8096 40.3564C44.1921 42.0889 41.1598 43.7643 39.7998 43.8818C38.4273 44.0093 37.1464 44.4987 30.8789 42.0312C23.3189 39.0537 18.5512 31.3105 18.1787 30.8105C17.8062 30.323 15.1514 26.7848 15.1514 23.1348C15.1514 19.4723 17.0716 17.6786 17.7441 16.9336C18.4291 16.1886 19.2314 16.0059 19.7314 16.0059Z" fill="#519BFF"/>
</g>
<defs>
<clipPath id="clip0_617_191">
<rect width="60" height="60" fill="white"/>
</clipPath>
</defs>
</svg>
